<svg width="113" height="84" viewBox="0 0 113 84" fill="none" xmlns="http://www.w3.org/2000/svg">
<g clip-path="url(#clip0_69_598)">
<path d="M43.9734 63.1491L45.5012 64.3765L51.2692 59.1771L49.0144 57.3657L43.9734 63.1491Z" fill="#FFB6B6"/>
<path d="M48.4933 62.734L45.2579 60.5899L53.7766 47.6235C47.6024 44.1781 43.3563 39.9751 39.8917 35.3584C38.7143 33.8003 37.9966 31.9871 39.6392 30.8182C39.716 30.7636 39.7948 30.7118 39.8757 30.663C41.7487 29.5425 41.1407 31.2218 43.7081 30.397L46.0279 32.7728L51.04 37.4548L59.589 42.694C61.3083 43.7477 61.7853 45.9639 60.6545 47.6441C60.5948 47.7328 60.5312 47.819 60.4638 47.9026L48.4933 62.734Z" fill="#2F2E41"/>
<path d="M44.1669 62.1493L46.8457 64.053L45.9309 65.1024L46.9545 68.6595C47.0051 68.8352 46.9959 69.0218 46.9282 69.1921C46.8605 69.3623 46.7378 69.5074 46.5782 69.606C46.4185 69.7046 46.2302 69.7517 46.0407 69.7403C45.8512 69.7289 45.6705 69.6597 45.5249 69.5427L42.4875 67.1023L42.8688 65.6436L41.7595 66.5174L40.6143 65.5973L44.1669 62.1493Z" fill="#2F2E41"/>
<path d="M40.4282 49.1934L23.9056 54.8659L24.3844 56.1513L40.907 50.4789L40.4282 49.1934Z" fill="#3F3D56"/>
<path d="M44.2923 71.1366L39.9872 67.5679C39.6876 67.3194 39.5031 66.9668 39.4743 66.5878C39.4454 66.2087 39.5746 65.8342 39.8333 65.5465C40.092 65.2588 40.4592 65.0816 40.854 65.0537C41.2488 65.0259 41.639 65.1497 41.9387 65.398L46.2439 68.9667C46.3924 69.0897 46.5142 69.2396 46.6023 69.4078C46.6904 69.576 46.7432 69.7592 46.7576 69.947C46.7719 70.1348 46.7476 70.3234 46.6861 70.5022C46.6245 70.6809 46.5268 70.8463 46.3986 70.9888C46.2704 71.1313 46.1143 71.2482 45.9391 71.3328C45.7638 71.4173 45.573 71.4679 45.3774 71.4816C45.1818 71.4954 44.9853 71.4719 44.7991 71.4127C44.6129 71.3535 44.4407 71.2597 44.2923 71.1366V71.1366Z" fill="#3F3D56"/>
<path d="M68.7481 29.9062C68.4761 29.9963 68.1867 30.028 67.9005 29.9992C67.6143 29.9703 67.3381 29.8815 67.0915 29.7391C66.8449 29.5967 66.6338 29.4041 66.4731 29.1749C66.3124 28.9457 66.206 28.6854 66.1614 28.4125L50.7821 24.6105L53.2902 22.084L67.9381 26.2132C68.4207 26.1717 68.9024 26.3016 69.292 26.5782C69.6815 26.8549 69.9518 27.2591 70.0517 27.7143C70.1515 28.1695 70.074 28.6441 69.8337 29.0481C69.5935 29.452 69.2072 29.7574 68.7481 29.9062H68.7481Z" fill="#FFB6B6"/>
<path d="M45.3848 12.2536C45.3848 12.2536 42.8841 12.5318 42.929 15.2983C42.974 18.0649 49.1039 24.3671 50.0603 25.4113C51.0166 26.4555 60.5607 26.989 60.5607 26.989L63.5421 24.4722L54.702 21.6128L45.3848 12.2536Z" fill="white"/>
<path d="M40.3124 25.2388L39.7482 27.7791C39.7482 27.7791 38.7215 29.8933 38.9208 30.4581C39.1182 31.02 48.0047 34.0738 48.0047 34.0738C48.0047 34.0738 48.7661 30.2645 50.0366 27.6951L40.3124 25.2388Z" fill="#FFB6B6"/>
<path d="M68.7925 64.9707L63.6602 67.3248C63.3029 67.4886 62.8925 67.5096 62.5191 67.3829C62.1457 67.2562 61.8401 66.9923 61.6694 66.6493C61.4987 66.3063 61.4769 65.9122 61.6089 65.5537C61.7408 65.1953 62.0157 64.9019 62.373 64.738L67.5052 62.384C67.8625 62.2201 68.273 62.1992 68.6463 62.3258C69.0197 62.4525 69.3254 62.7164 69.4961 63.0594C69.6668 63.4025 69.6885 63.7965 69.5566 64.155C69.4247 64.5134 69.1498 64.8069 68.7925 64.9707Z" fill="#3F3D56"/>
<path d="M88.2603 83.7619C85.0548 83.7619 81.9212 82.8493 79.2559 81.1395C76.5905 79.4298 74.5132 76.9996 73.2864 74.1564C72.0597 71.3132 71.7388 68.1846 72.3641 65.1662C72.9895 62.1478 74.5331 59.3753 76.7998 57.1992C79.0665 55.023 81.9544 53.5411 85.0984 52.9407C88.2423 52.3403 91.5012 52.6484 94.4627 53.8262C97.4243 55.0039 99.9555 56.9982 101.736 59.5571C103.517 62.1159 104.468 65.1243 104.468 68.2018C104.463 72.3272 102.754 76.2822 99.7155 79.1993C96.677 82.1164 92.5574 83.7572 88.2603 83.7619ZM88.2603 54.0825C85.3516 54.0825 82.5081 54.9105 80.0896 56.462C77.6711 58.0135 75.786 60.2186 74.6729 62.7986C73.5598 65.3785 73.2685 68.2175 73.836 70.9564C74.4035 73.6952 75.8042 76.2111 77.861 78.1857C79.9178 80.1603 82.5383 81.5051 85.3911 82.0499C88.244 82.5947 91.2011 82.315 93.8884 81.2464C96.5757 80.1777 98.8727 78.368 100.489 76.0461C102.105 73.7242 102.967 70.9944 102.967 68.2018C102.963 64.4584 101.412 60.8696 98.6548 58.2226C95.8977 55.5756 92.1595 54.0867 88.2603 54.0825Z" fill="#3F3D56"/>
<path d="M88.9742 71.4754C90.2307 71.4754 91.2494 70.4975 91.2494 69.2912C91.2494 68.0848 90.2307 67.1069 88.9742 67.1069C87.7177 67.1069 86.699 68.0848 86.699 69.2912C86.699 70.4975 87.7177 71.4754 88.9742 71.4754Z" fill="#3F3D56"/>
<path d="M21.6493 83.974C18.612 83.974 15.6428 83.1093 13.1173 81.4892C10.5918 79.8692 8.62339 77.5665 7.46104 74.8724C6.29868 72.1784 5.99455 69.2139 6.58712 66.3539C7.17968 63.4938 8.64233 60.8668 10.7901 58.8048C12.9378 56.7429 15.6743 55.3386 18.6533 54.7698C21.6323 54.2009 24.7202 54.4928 27.5263 55.6088C30.3325 56.7247 32.731 58.6144 34.4185 61.039C36.106 63.4636 37.0067 66.3142 37.0067 69.2302C37.0021 73.1392 35.3826 76.8867 32.5035 79.6508C29.6245 82.4148 25.7209 83.9696 21.6493 83.974ZM21.6493 55.8516C18.8932 55.8516 16.1989 56.6363 13.9073 58.1063C11.6156 59.5764 9.8295 61.6658 8.77477 64.1105C7.72004 66.5551 7.44407 69.2451 7.98177 71.8403C8.51947 74.4355 9.84668 76.8193 11.7956 78.6903C13.7445 80.5614 16.2275 81.8355 18.9307 82.3518C21.6339 82.868 24.4358 82.603 26.9822 81.5905C29.5285 80.5779 31.7049 78.8631 33.2362 76.663C34.7674 74.4629 35.5847 71.8763 35.5847 69.2302C35.5805 65.6832 34.111 62.2827 31.4985 59.7746C28.886 57.2664 25.3439 55.8556 21.6493 55.8516Z" fill="#3F3D56"/>
<path d="M21.6493 71.4145C22.9059 71.4145 23.9245 70.4365 23.9245 69.2302C23.9245 68.0239 22.9059 67.0459 21.6493 67.0459C20.3928 67.0459 19.3742 68.0239 19.3742 69.2302C19.3742 70.4365 20.3928 71.4145 21.6493 71.4145Z" fill="#3F3D56"/>
<path d="M52.5062 71.49C53.9632 71.49 55.1444 70.356 55.1444 68.9572C55.1444 67.5583 53.9632 66.4243 52.5062 66.4243C51.0491 66.4243 49.8679 67.5583 49.8679 68.9572C49.8679 70.356 51.0491 71.49 52.5062 71.49Z" fill="#3F3D56"/>
<path d="M22.2335 69.0754L21.1961 68.1417L39.7151 49.1751L72.7635 39.6794L89.1653 67.315L87.9299 67.9909L72.088 41.2987L40.4904 50.3774L22.2335 69.0754Z" fill="#3F3D56"/>
<path d="M50.2656 68.2142H36.2915V69.5794H50.2656V68.2142Z" fill="#3F3D56"/>
<path d="M40.8138 42.6387H39.3918V49.7762H40.8138V42.6387Z" fill="#3F3D56"/>
<path d="M68.4633 26.4883L67.1102 26.9078L71.7491 40.6988L73.1023 40.2793L68.4633 26.4883Z" fill="#3F3D56"/>
<path d="M40.6718 48.8783L39.4448 49.5682L51.105 68.6805L52.332 67.9906L40.6718 48.8783Z" fill="#3F3D56"/>
<path d="M79.0459 51.6619L54.0202 68.0454L54.8213 69.1733L79.847 52.7897L79.0459 51.6619Z" fill="#3F3D56"/>
<path d="M42.8311 43.4896H37.1432C36.7473 43.4896 36.3675 43.3385 36.0875 43.0697C35.8075 42.8009 35.6502 42.4363 35.6502 42.0561C35.6502 41.676 35.8075 41.3114 36.0875 41.0426C36.3675 40.7737 36.7473 40.6227 37.1432 40.6227H42.8311C43.2271 40.6227 43.6069 40.7737 43.8869 41.0426C44.1669 41.3114 44.3242 41.676 44.3242 42.0561C44.3242 42.4363 44.1669 42.8009 43.8869 43.0697C43.6069 43.3385 43.2271 43.4896 42.8311 43.4896Z" fill="white"/>
<path d="M70.5596 28.0632H64.8717C64.4757 28.0632 64.096 27.9122 63.816 27.6434C63.536 27.3745 63.3787 27.0099 63.3787 26.6298C63.3787 26.2496 63.536 25.885 63.816 25.6162C64.096 25.3474 64.4757 25.1964 64.8717 25.1964H70.5596C70.9556 25.1964 71.3354 25.3474 71.6154 25.6162C71.8954 25.885 72.0527 26.2496 72.0527 26.6298C72.0527 27.0099 71.8954 27.3745 71.6154 27.6434C71.3354 27.9122 70.9556 28.0632 70.5596 28.0632Z" fill="white"/>
<path d="M113 83.8376C113 83.8589 112.996 83.8801 112.987 83.8998C112.979 83.9195 112.966 83.9375 112.951 83.9526C112.935 83.9677 112.916 83.9796 112.896 83.9878C112.875 83.9959 112.853 84.0001 112.831 84H0.169215C0.124337 84 0.0812956 83.9829 0.0495617 83.9524C0.0178277 83.922 0 83.8806 0 83.8376C0 83.7945 0.0178277 83.7531 0.0495617 83.7227C0.0812956 83.6922 0.124337 83.6751 0.169215 83.6751H112.831C112.853 83.675 112.875 83.6792 112.896 83.6873C112.916 83.6955 112.935 83.7074 112.951 83.7225C112.966 83.7376 112.979 83.7556 112.987 83.7753C112.996 83.795 113 83.8162 113 83.8376Z" fill="#CCCCCC"/>
<path d="M49.4574 10.2217C51.7466 9.84801 53.2868 7.76347 52.8976 5.56572C52.5085 3.36797 50.3372 1.88924 48.048 2.26288C45.7588 2.63652 44.2185 4.72105 44.6077 6.91881C44.9969 9.11656 47.1681 10.5953 49.4574 10.2217Z" fill="#FFB6B6"/>
<path d="M74.7772 44.8583L70.0287 35.2353L70.093 35.2061C70.422 35.0564 70.7786 34.9704 71.1423 34.953C71.506 34.9356 71.8696 34.9872 72.2126 35.1047C72.5555 35.2223 72.8709 35.4036 73.1409 35.6382C73.4108 35.8728 73.63 36.1562 73.7859 36.4721L76.1601 41.2837C76.316 41.5996 76.4056 41.9419 76.4237 42.2911C76.4418 42.6402 76.3881 42.9894 76.2656 43.3186C76.1432 43.6478 75.9544 43.9507 75.71 44.2098C75.4656 44.469 75.1705 44.6794 74.8414 44.8291L74.7772 44.8583Z" fill="#3F3D56"/>
<path d="M60.2619 46.5497C59.6641 46.5482 59.0827 46.3615 58.6043 46.0174C58.1258 45.6733 57.7758 45.1901 57.6063 44.6398L57.5861 44.5743L68.2241 41.5609L68.2443 41.6263C68.3473 41.9616 68.3806 42.3131 68.3421 42.6608C68.3037 43.0084 68.1943 43.3454 68.0202 43.6524C67.8461 43.9595 67.6107 44.2306 67.3275 44.4503C67.0442 44.67 66.7187 44.834 66.3694 44.9329L61.0504 46.4396C60.7945 46.5124 60.5289 46.5495 60.2619 46.5497Z" fill="#3F3D56"/>
<path d="M61.6292 63.1339L63.5649 62.6755L62.6701 55.1265L59.813 55.8034L61.6292 63.1339Z" fill="#FFB6B6"/>
<path d="M60.7124 60.9677L63.7334 59.6164L64.2573 60.889L68.0018 61.7232C68.1867 61.7643 68.3531 61.8612 68.4767 61.9996C68.6002 62.138 68.6744 62.3107 68.6885 62.4924C68.7026 62.6742 68.6558 62.8555 68.5549 63.01C68.4541 63.1644 68.3044 63.2838 68.1278 63.3508L64.4444 64.7485L63.2912 63.7306L63.5616 65.0835L62.1728 65.6105L60.7124 60.9677Z" fill="#2F2E41"/>
<path d="M46.163 10.1827L48.915 11.5641C49.067 11.6224 49.1963 11.7247 49.2849 11.8569C49.3735 11.989 49.4169 12.1444 49.4092 12.3014L50.126 15.0552L52.6482 20.1805C52.6482 20.1805 53.3054 22.9082 52.0512 25.4837C50.797 28.0592 48.0213 34.4795 48.0213 34.4795C46.211 38.6424 31.3512 35.4276 35.2236 31.8857C35.6844 31.4642 38.2741 27.9044 39.2217 27.6998L41.5467 14.9265C41.6639 14.2521 41.9351 13.611 42.3408 13.0491C42.7465 12.4872 43.2767 12.0185 43.8934 11.6765C44.2659 11.4743 44.6112 11.3546 44.8479 11.4157C45.3873 11.5364 45.6422 10.3636 46.163 10.1827Z" fill="white"/>
<path d="M70.0635 27.1075C69.8133 27.244 69.5349 27.3261 69.2481 27.3482C68.9612 27.3702 68.6727 27.3316 68.4031 27.235C68.1334 27.1384 67.8891 26.9863 67.6873 26.7893C67.4856 26.5922 67.3312 26.3551 67.2352 26.0947L51.3905 25.0659L53.3733 22.1406L68.5615 23.6199C69.028 23.494 69.5264 23.5368 69.9622 23.7402C70.398 23.9435 70.741 24.2933 70.9261 24.7232C71.1112 25.1531 71.1257 25.6332 70.9667 26.0727C70.8077 26.5121 70.4864 26.8803 70.0635 27.1075Z" fill="#FFB6B6"/>
<path d="M43.7235 13.8693C43.7235 13.8693 41.3184 14.5832 41.8912 17.2949C42.4641 20.0066 49.6943 25.1222 50.8339 25.9802C51.9736 26.8383 61.4577 25.6817 61.4577 25.6817L63.9075 22.6826L54.671 21.4286L43.7235 13.8693Z" fill="white"/>
<path d="M53.2374 4.90688C52.6025 5.20714 51.8836 4.77196 51.3281 4.33919L51.5269 4.50062C50.5631 5.41954 50.122 6.73227 49.9134 8.02229C49.7046 9.31096 49.6939 10.6269 49.4272 11.9069C49.1604 13.1857 48.5923 14.4735 47.5138 15.2657C46.0689 16.3269 44.0599 16.2795 42.2696 15.9763C42.2458 15.9719 42.2235 15.9686 42.1997 15.9642C42.6662 14.6267 42.8465 13.2125 42.7298 11.8065C42.2659 13.2212 41.4643 14.5124 40.3887 15.5771C39.2006 15.2758 38.0399 14.8827 36.9179 14.4016C36.1919 14.0894 35.4092 13.6605 35.2007 12.9232C34.9918 12.1915 35.4504 11.4174 36.0698 10.9479C36.6891 10.4785 37.4527 10.2293 38.1603 9.89219C38.8668 9.5567 39.5644 9.08142 39.8411 8.37157C40.4794 6.73863 38.5915 4.89071 39.3023 3.2847C39.6529 2.49494 40.5276 2.0586 41.3505 1.72073C42.6067 1.20628 43.8978 0.773953 45.2148 0.426701C46.3709 0.121671 47.579 -0.118428 48.762 0.0623603C49.945 0.243148 51.1094 0.92133 51.546 1.99388C52.2576 2.21699 53.0134 2.46891 53.4746 3.03752C53.9357 3.60478 53.9096 4.58946 53.2374 4.90688Z" fill="#2F2E41"/>
<path d="M75.9856 41.4357C76.8327 41.135 77.1331 39.8881 76.6566 38.6505C76.18 37.4129 75.107 36.6534 74.2599 36.954C73.4128 37.2547 73.1124 38.5016 73.5889 39.7392C74.0654 40.9768 75.1385 41.7363 75.9856 41.4357Z" fill="white"/>
</g>
<defs>
<clipPath id="clip0_69_598">
<rect width="113" height="84" fill="white"/>
</clipPath>
</defs>
</svg>
