<svg width="125" height="82" viewBox="0 0 125 82" fill="none" xmlns="http://www.w3.org/2000/svg">
<g clip-path="url(#clip0_69_546)">
<path d="M124.173 81.8596H0V81.5789H124.173C124.25 81.5789 124.313 81.6417 124.313 81.7193C124.313 81.7968 124.25 81.8596 124.173 81.8596Z" fill="#3F3D56"/>
<path d="M30.6532 81.5789H22.8737C21.7109 81.5789 20.765 80.6303 20.765 79.4643V56.5677C20.765 55.4017 21.7109 54.4532 22.8737 54.4532H30.6532C31.816 54.4532 32.7619 55.4017 32.7619 56.5677V79.4643C32.7619 80.6303 31.816 81.5789 30.6532 81.5789Z" fill="#3F3D56"/>
<path d="M106.869 81.6237H99.0899C97.9272 81.6237 96.9812 80.6752 96.9812 79.5092V56.6126C96.9812 55.4466 97.9272 54.498 99.0899 54.498H106.869C108.032 54.498 108.978 55.4466 108.978 56.6126V79.5092C108.978 80.6752 108.032 81.6237 106.869 81.6237Z" fill="#3F3D56"/>
<path d="M32.4975 24.6855L21.0416 41.0005C19.6592 42.9692 19.1111 45.407 19.5174 47.7801L22.9991 68.12C23.7469 72.4887 27.5246 75.682 31.9452 75.682H99.2637C104.061 75.682 108.031 71.9382 108.324 67.1365L109.667 45.1306C109.827 42.5109 108.852 39.9495 106.991 38.1037L90.9216 22.165C89.1578 20.4155 86.7567 19.4661 84.2767 19.5378L39.6578 20.8274C36.7981 20.9101 34.1445 22.3398 32.4975 24.6855H32.4975Z" fill="#6C63FF"/>
<path d="M34.2425 27.5818L32.0521 31.6886C30.6564 34.3055 32.6914 37.3959 35.7878 37.3614L90.6263 36.7506C93.9947 36.7131 95.8918 33.0724 93.8772 30.5118L90.4243 26.1228C89.628 25.1107 88.3654 24.5243 87.0341 24.5485L37.839 25.4415C36.3136 25.4692 34.9302 26.2925 34.2425 27.5818H34.2425Z" fill="white"/>
<path d="M102.888 36.1518C102.533 36.1518 102.188 36.0201 101.923 35.7796C101.623 35.5071 101.451 35.1178 101.451 34.7117L101.451 33.8089L101.631 29.6486C101.665 28.8761 102.295 28.2709 103.066 28.2709H108.775C109.307 28.2709 109.792 28.563 110.042 29.0334L110.723 30.3123C110.938 30.7168 110.95 31.1867 110.756 31.6015C110.562 32.0166 110.194 32.3078 109.746 32.4004L105.442 33.2934C104.997 33.3856 104.647 33.7161 104.527 34.1561L104.273 35.0906C104.117 35.6621 103.618 36.0857 103.03 36.1447C102.982 36.1495 102.935 36.1518 102.888 36.1518Z" fill="#6C63FF"/>
<path d="M25.7723 36.1447C25.1845 36.0857 24.6849 35.6621 24.5294 35.0906L24.2752 34.1561C24.1557 33.7161 23.8049 33.3856 23.3599 33.2934L19.0559 32.4004C18.6084 32.3078 18.2404 32.0166 18.0464 31.6015C17.8524 31.1867 17.8645 30.7168 18.0795 30.3123L18.7597 29.0334C19.01 28.563 19.4956 28.2709 20.0272 28.2709H25.736C26.5072 28.2709 27.1374 28.8761 27.171 29.6486L27.3514 33.809L27.3515 34.7117C27.3515 35.1178 27.1793 35.5071 26.879 35.7796C26.614 36.0201 26.269 36.1518 25.9146 36.1518C25.8673 36.1518 25.8198 36.1495 25.7723 36.1447L25.7723 36.1447Z" fill="#6C63FF"/>
<path d="M33.7029 53.9814C36.8209 53.9814 39.3485 51.4469 39.3485 48.3204C39.3485 45.1939 36.8209 42.6594 33.7029 42.6594C30.5849 42.6594 28.0573 45.1939 28.0573 48.3204C28.0573 51.4469 30.5849 53.9814 33.7029 53.9814Z" fill="white"/>
<path d="M98.7454 54.0993C101.863 54.0993 104.391 51.5648 104.391 48.4383C104.391 45.3118 101.863 42.7773 98.7454 42.7773C95.6274 42.7773 93.0998 45.3118 93.0998 48.4383C93.0998 51.5648 95.6274 54.0993 98.7454 54.0993Z" fill="white"/>
<path d="M26.188 18.0768C26.7079 18.3686 27.1505 18.781 27.4789 19.2795L31.186 21.4899L37.4847 24.4482C37.4847 24.4482 38.9702 19.1532 40.7449 18.815C42.5196 18.4768 45.4476 22.4011 45.4476 22.4011C45.4476 22.4011 40.3436 30.6878 38.1202 29.8381C35.8969 28.9885 30.9293 24.8621 30.9293 24.8621L30.2803 24.3333L26.153 21.5801C25.5581 21.5438 24.9806 21.3651 24.4687 21.0591C23.1778 20.3114 22.5163 19.0374 22.991 18.2137C23.4657 17.39 24.8967 17.3286 26.188 18.0768V18.0768Z" fill="#A0616A"/>
<path d="M38.4652 20.375L41.6864 16.5728L43.6324 16.8539C46.0193 17.1987 47.3462 19.8094 46.2219 21.9486L45.1007 24.0818L38.4652 20.375Z" fill="#E6E6E6"/>
<path d="M27.991 25.3531L22.3216 17.5162C22.2376 17.4005 22.2581 17.2384 22.3683 17.1471L23.7284 16.021C23.7873 15.9722 23.8646 15.9507 23.9402 15.9619C24.0158 15.9732 24.0837 16.016 24.1264 16.08L29.7593 24.5569C29.8057 24.6265 29.8174 24.7121 29.7916 24.7918C29.7656 24.8716 29.7056 24.9339 29.627 24.9629L28.3036 25.4486C28.2063 25.4844 28.0977 25.4603 28.024 25.3907C28.012 25.3793 28.0009 25.3668 27.991 25.3531Z" fill="#3F3D56"/>
<path d="M28.4417 24.874L22.5742 17.2478C22.4872 17.1352 22.4932 16.9885 22.5878 16.9139L23.7546 15.9932C23.8052 15.9533 23.8748 15.9398 23.9456 15.9562C24.0164 15.9726 24.0826 16.0172 24.1271 16.0792L30.0123 24.288C30.0607 24.3554 30.0784 24.4347 30.0609 24.5055C30.0433 24.5764 29.9929 24.6286 29.9225 24.6488L28.7383 24.9865C28.6512 25.0114 28.5489 24.9807 28.4752 24.911C28.4632 24.8997 28.4519 24.8873 28.4417 24.874H28.4417Z" fill="#E6E6E6"/>
<path d="M26.1006 72.5591L23.5494 78.0793L19.3869 76.1944L22.6094 72.0205L26.1006 72.5591Z" fill="#A0616A"/>
<path d="M21.8038 76.329L24.8921 75.9251C24.8921 75.9251 27.0405 81.0414 25.4292 81.3107C23.8179 81.58 11.1962 82.7917 11.1962 81.176C11.1962 79.5604 16.4328 77.5408 16.4328 77.5408L20.0582 74.9826L21.8038 76.329Z" fill="#2F2E41"/>
<path d="M46.1074 37.0142C46.1074 37.0142 49.8671 42.6691 41.8106 46.1697L33.2171 58.5566L26.1006 74.0401L21.8038 72.4244L29.3231 48.9971L33.6199 38.4952L35.634 35.2639L46.1074 37.0142Z" fill="#2F2E41"/>
<path d="M16.2334 57.8522L14.5232 63.6897L10.1287 62.4419L12.7012 57.8365L16.2334 57.8522Z" fill="#A0616A"/>
<path d="M12.539 62.2171L15.5339 61.3602C15.5339 61.3602 18.4123 66.1023 16.8584 66.6072C15.3044 67.1122 2.99957 70.1798 2.7616 68.5819C2.52363 66.9839 7.40541 64.211 7.40541 64.211L10.6143 61.144L12.539 62.2171H12.539Z" fill="#2F2E41"/>
<path d="M37.9169 35.8835L17.2803 40.374C15.688 40.7204 14.4534 41.9828 14.139 43.5859L11.2506 58.3135L17.5721 60.371L20.4112 47.2218L38.7326 46.51L37.9169 35.8835H37.9169Z" fill="#2F2E41"/>
<path d="M43.1048 11.001L40.5531 16.0133L47.3411 17.0722L47.2672 10.3333L43.1048 11.001Z" fill="#A0616A"/>
<path d="M44.5217 13.0574C47.1313 13.0574 49.2468 10.9361 49.2468 8.31939C49.2468 5.70266 47.1313 3.58139 44.5217 3.58139C41.912 3.58139 39.7965 5.70266 39.7965 8.31939C39.7965 10.9361 41.912 13.0574 44.5217 13.0574Z" fill="#A0616A"/>
<path d="M47.5844 38.6299L48.3637 25.9726C49.0379 22.943 48.8133 19.7817 47.7178 16.8784L47.4501 13.8562L41.2735 14.2601L38.6552 18.5012L36.1711 28.5319L35.634 35.2639L47.5844 38.6299V38.6299Z" fill="#E6E6E6"/>
<path d="M29.5095 28.8363C30.0995 28.753 30.7007 28.8126 31.263 29.0101L35.5482 28.5194L42.3477 27.0509C42.3477 27.0509 40.3336 21.9346 41.5421 20.5882C42.7505 19.2418 47.4501 20.5882 47.4501 20.5882C47.4501 20.5882 48.39 30.2822 46.1074 30.9554C43.8247 31.6286 37.3796 31.3594 37.3796 31.3594L36.5438 31.3323L31.5965 31.6461C31.1011 31.9782 30.5336 32.1866 29.9414 32.2537C28.4625 32.4421 27.1668 31.8295 27.0474 30.8858C26.928 29.942 28.03 29.0245 29.5095 28.8363V28.8363Z" fill="#A0616A"/>
<path d="M40.6693 23.2136L40.9378 18.232L42.6565 17.2746C44.7646 16.1002 47.3968 17.3728 47.7933 19.7581L48.1886 22.1365L40.6693 23.2136V23.2136Z" fill="#E6E6E6"/>
<path d="M48.2057 11.2314C48.2057 11.2314 48.6463 9.02234 47.3245 8.87507C46.0026 8.7278 44.6808 6.0769 44.6808 6.0769C44.6808 6.0769 40.1196 5.27914 39.9727 7.19367C39.8259 9.10821 39.8821 8.6827 39.8821 8.6827C39.8821 8.6827 38.7978 8.22458 39.2384 6.31004C39.3643 5.76303 39.67 5.26411 40.0425 4.83045C41.2398 3.4367 43.0792 2.77826 44.9017 2.98896C45.6735 3.07819 47.9714 3.81273 48.4153 4.31347C49.5903 5.63892 50.115 9.7587 48.2057 11.2314V11.2314Z" fill="#3F3D56"/>
<path d="M32.6273 67.4003C31.7984 67.4003 31.0672 66.9654 30.6693 66.2352C30.2692 65.5008 30.3019 64.6438 30.7566 63.9423L30.8242 63.9863L30.7566 63.9423L32.2303 61.6688C32.6438 61.0311 33.3434 60.6504 34.1019 60.6504H98.2009C98.8544 60.6504 99.4728 60.936 99.8975 61.4341L101.515 63.3308C102.086 64.0008 102.214 64.9148 101.848 65.7163C101.483 66.5178 100.71 67.0187 99.8307 67.0236L32.6407 67.4003H32.6273Z" fill="#3F3D56"/>
<path d="M109.318 39.9543C110.497 40.7276 111.851 40.7443 112.341 39.9918C112.832 39.2392 112.274 38.0025 111.094 37.2291C110.627 36.9136 110.091 36.7149 109.532 36.6496L104.495 33.4362L103.041 35.8388L108.162 38.7515C108.446 39.2392 108.842 39.6517 109.318 39.9543L109.318 39.9543Z" fill="#FFB6B6"/>
<path d="M94.9901 32.0357L107.348 38.4406L108.423 35.4758L100.041 28.8917L99.4829 19.286C99.4148 18.1129 98.8281 17.0497 97.8733 16.3687C96.9186 15.6879 95.7243 15.481 94.5968 15.8011C92.5898 16.3713 91.3932 18.4798 91.9296 20.5012L94.9901 32.0357Z" fill="#E6E6E6"/>
<path d="M97.9752 14.847L98.553 11.2258L94.6528 9.63251L94.075 15.1367L97.9752 14.847Z" fill="#FFB6B6"/>
<path d="M85.693 35.452C85.693 35.452 84.5733 42.4691 89.0521 43.3111C93.5308 44.1532 103.748 44.7146 103.748 44.7146L116.904 60.7135L119.563 57.7663L108.227 40.2236L99.1292 34.4696L85.693 35.452Z" fill="#2F2E41"/>
<path d="M86.7619 34.316C86.7619 34.316 84.1507 40.9224 88.3406 42.7187C92.5305 44.515 102.383 47.2856 102.383 47.2856L111.764 65.7656L114.998 63.4671L107.727 43.876L100.091 36.2799L86.7619 34.316V34.316Z" fill="#2F2E41"/>
<path d="M98.7093 14.2604L93.6708 13.4183L90.2558 15.3243C88.2682 18.2233 88.1039 27.4179 87.6348 30.9043L84.8532 37.4168L93.6708 36.1537L100.809 35.452L98.4294 19.8741L98.7093 14.2604L98.7093 14.2604Z" fill="#E6E6E6"/>
<path d="M96.9896 12.3899C99.1862 12.3899 100.967 10.6043 100.967 8.40175C100.967 6.19916 99.1862 4.4136 96.9896 4.4136C94.793 4.4136 93.0123 6.19916 93.0123 8.40175C93.0123 10.6043 94.793 12.3899 96.9896 12.3899Z" fill="#FFB6B6"/>
<path d="M96.6722 3.03997C96.7873 3.10734 96.9414 3.00542 96.9783 2.87702C97.0152 2.74862 96.9723 2.61229 96.9296 2.48569C96.8581 2.27325 96.7866 2.0608 96.715 1.84836C96.5628 1.39634 96.4013 0.928534 96.0717 0.584493C95.5742 0.0652179 94.7835 -0.0668828 94.0718 0.0288192C93.1577 0.15172 92.2559 0.648004 91.8309 1.46868C91.4059 2.28935 91.5869 3.43448 92.3548 3.94649C91.2603 5.20437 90.8788 6.60623 90.939 8.27447C90.9993 9.94272 92.8123 11.478 93.9946 12.6533C94.2587 12.4928 94.4987 11.7406 94.3535 11.4674C94.2083 11.1942 94.4164 10.8776 94.2366 10.6259C94.0567 10.3742 93.9063 10.775 94.0881 10.5247C94.2028 10.3668 93.7551 10.0035 93.9256 9.90903C94.7504 9.45189 95.0247 8.42105 95.5427 7.63166C96.1675 6.67951 97.2368 6.0347 98.3685 5.92773C98.9919 5.8688 99.6504 5.97553 100.161 6.33843C100.672 6.70134 101.003 7.34984 100.885 7.96636C101.192 7.65392 101.344 7.19605 101.287 6.76136C101.229 6.32666 100.962 5.92469 100.585 5.70347C100.814 4.94213 100.618 4.06638 100.085 3.47723C99.5518 2.88808 97.39 2.98842 96.612 3.14348" fill="#2F2E41"/>
<path d="M96.5514 5.95084C95.5209 6.06238 94.7769 6.9574 94.1487 7.78395C93.7866 8.26036 93.4072 8.78647 93.4163 9.3854C93.4255 9.99094 93.8293 10.5103 94.0223 11.0842C94.3377 12.0222 94.0303 13.1382 93.2794 13.7809C94.0213 13.9221 94.8233 13.3643 94.9514 12.6181C95.1005 11.7494 94.4438 10.911 94.5216 10.033C94.5901 9.25947 95.198 8.66415 95.7148 8.08579C96.2316 7.50742 96.717 6.73995 96.4793 6.00089" fill="#2F2E41"/>
<path d="M106.157 40.7044C107.336 41.4777 108.689 41.4945 109.18 40.7419C109.671 39.9893 109.113 38.7526 107.933 37.9792C107.466 37.6638 106.93 37.4651 106.371 37.3997L101.334 34.1864L99.8802 36.5889L105.001 39.5016C105.285 39.9894 105.681 40.4018 106.157 40.7044V40.7044Z" fill="#FFB6B6"/>
<path d="M91.829 32.7858L104.187 39.1907L105.262 36.226L96.8799 29.6418L96.3218 20.0361C96.2537 18.863 95.667 17.7998 94.7122 17.1188C93.7575 16.438 92.5632 16.2311 91.4358 16.5512C89.4287 17.1214 88.2321 19.2299 88.7685 21.2513L91.829 32.7858Z" fill="#E6E6E6"/>
<path d="M112.209 63.2863L112.495 63.4502C112.495 63.4502 114.455 62.3275 115.435 63.4502C116.414 64.5729 117.114 67.3798 117.114 67.3798C117.114 67.3798 121.173 70.748 118.794 70.748C117.003 70.748 112.753 68.7598 110.761 67.7768C110.125 67.463 109.829 66.7174 110.077 66.0514C110.283 65.4963 110.549 64.9138 110.816 64.7133C111.096 64.5028 111.271 64.0466 111.376 63.6432C111.471 63.2776 111.882 63.0989 112.209 63.2863Z" fill="#2F2E41"/>
<path d="M117.668 57.9533L117.954 58.1172C117.954 58.1172 119.913 56.9945 120.893 58.1172C121.873 59.2399 122.573 62.0468 122.573 62.0468C122.573 62.0468 126.631 65.415 124.252 65.415C122.461 65.415 118.211 63.4268 116.22 62.4438C115.584 62.1299 115.288 61.3844 115.535 60.7184C115.741 60.1633 116.008 59.5808 116.274 59.3803C116.554 59.1698 116.729 58.7136 116.834 58.3102C116.929 57.9446 117.341 57.7658 117.668 57.9533Z" fill="#2F2E41"/>
</g>
<defs>
<clipPath id="clip0_69_546">
<rect width="125" height="82" fill="white"/>
</clipPath>
</defs>
</svg>
