<svg width="150" height="93" viewBox="0 0 150 93" fill="none" xmlns="http://www.w3.org/2000/svg">
<path d="M90.7333 88.7913C96.8474 88.7913 101.804 83.6228 101.804 77.2472C101.804 70.8716 96.8474 65.7032 90.7333 65.7032C84.6192 65.7032 79.6628 70.8716 79.6628 77.2472C79.6628 83.6228 84.6192 88.7913 90.7333 88.7913Z" fill="#3F3D56"/>
<path d="M90.7333 84.9432C94.8094 84.9432 98.1137 81.4976 98.1137 77.2472C98.1137 72.9968 94.8094 69.5512 90.7333 69.5512C86.6573 69.5512 83.353 72.9968 83.353 77.2472C83.353 81.4976 86.6573 84.9432 90.7333 84.9432Z" fill="white"/>
<path d="M90.7334 81.6297C93.0544 81.6297 94.9361 79.6676 94.9361 77.2472C94.9361 74.8268 93.0544 72.8647 90.7334 72.8647C88.4123 72.8647 86.5306 74.8268 86.5306 77.2472C86.5306 79.6676 88.4123 81.6297 90.7334 81.6297Z" fill="#3F3D56"/>
<path d="M26.7701 88.7913C32.8842 88.7913 37.8407 83.6228 37.8407 77.2472C37.8407 70.8716 32.8842 65.7032 26.7701 65.7032C20.656 65.7032 15.6995 70.8716 15.6995 77.2472C15.6995 83.6228 20.656 88.7913 26.7701 88.7913Z" fill="#3F3D56"/>
<path d="M26.7701 84.9432C30.8462 84.9432 34.1505 81.4976 34.1505 77.2472C34.1505 72.9968 30.8462 69.5512 26.7701 69.5512C22.694 69.5512 19.3897 72.9968 19.3897 77.2472C19.3897 81.4976 22.694 84.9432 26.7701 84.9432Z" fill="white"/>
<path d="M105.878 71.7569C104.436 67.9672 99.3965 56.3868 90.4229 52.5541C90.3539 52.5247 90.2814 52.5045 90.2075 52.4934L61.4229 48.194C60.9485 48.1232 60.5072 48.4615 60.4306 48.9548L59.9259 52.2039C59.8912 52.427 59.9363 52.6554 60.0537 52.8454C61.5156 55.2104 70.8842 71.2614 55.8816 71.2614C41.1146 71.2614 36.744 60.0649 36.0878 58.0893C36.0258 57.9027 36.0233 57.7018 36.0803 57.5134L40.6284 42.4954C40.7092 42.2282 40.6645 41.9546 40.5339 41.736L42.5331 37.8639L46.1952 40.0257L48.0912 40.0497L54.5635 43.577L55.8816 41.3324L42.5331 34.3896C42.5331 34.3896 42.5559 32.7812 38.2507 31.4986L31.4853 28.2919L30.6653 29.3608L32.7154 31.071L32.9204 32.3537L34.3555 32.7812L37.2256 38.5532L36.4056 40.2071L37.4009 40.7132L37.1151 40.6454C36.7034 40.5478 36.2834 40.7692 36.1146 41.1726L31.5914 51.9815C31.5222 52.1469 31.4077 52.2873 31.2623 52.3851L29.6511 53.4691C29.5006 53.5704 29.3833 53.7172 29.315 53.8899L27.4748 58.5445C27.4174 58.6896 27.401 58.8416 27.4158 58.9887C25.1218 59.442 18.3781 61.3995 14.6745 69.1236L18.9797 72.7579C18.9797 72.7579 25.7282 68.2046 36.8815 72.9461C38.82 76.0925 41.6482 78.7037 45.7313 78.9499C56.4966 79.5988 74.3325 80.2401 76.3826 77.6748C77.8835 75.7967 78.9275 74.6241 79.3792 74.1306C79.5384 73.9568 79.7556 73.8562 79.986 73.8486L105.089 73.0124C105.699 72.9921 106.103 72.3478 105.878 71.7569Z" fill="#6C63FF"/>
<path d="M36.6106 38.1257C38.4222 38.1257 39.8907 36.5943 39.8907 34.7052C39.8907 32.8162 38.4222 31.2848 36.6106 31.2848C34.799 31.2848 33.3304 32.8162 33.3304 34.7052C33.3304 36.5943 34.799 38.1257 36.6106 38.1257Z" fill="#3F3D56"/>
<path d="M89.1413 52.5672C89.1025 52.5672 89.0634 52.5664 89.0242 52.5649L61.5982 51.4578C60.3846 51.4088 59.3451 50.6032 58.9501 49.4054L58.5747 48.2663C58.2684 47.3375 58.4016 46.3425 58.9399 45.5367C59.4783 44.7307 60.3269 44.2556 61.2685 44.2329L89.6044 43.5537C90.4819 43.5327 91.3265 43.9244 91.8993 44.6296C92.4719 45.3345 92.7054 46.2594 92.5396 47.167L92.0052 50.0923C91.7402 51.5434 90.5458 52.5672 89.1413 52.5672H89.1413Z" fill="#3F3D56"/>
<path d="M26.7701 81.6297C29.0912 81.6297 30.9728 79.6676 30.9728 77.2472C30.9728 74.8268 29.0912 72.8647 26.7701 72.8647C24.449 72.8647 22.5674 74.8268 22.5674 77.2472C22.5674 79.6676 24.449 81.6297 26.7701 81.6297Z" fill="#3F3D56"/>
<path d="M100.159 64.7704C99.5029 64.7704 98.8779 64.4038 98.5447 63.7752L96.467 59.8545C96.1379 59.2334 96.1567 58.5036 96.5173 57.9019C96.8778 57.3 97.5007 56.9604 98.1784 56.9992L101.948 57.2007C102.65 57.2382 103.28 57.6986 103.554 58.3739L104.656 61.0883C104.857 61.5854 104.852 62.1303 104.642 62.6232C104.431 63.1159 104.046 63.4842 103.557 63.6602L100.764 64.6643C100.564 64.7361 100.36 64.7704 100.159 64.7704Z" fill="#3F3D56"/>
<path d="M52.4845 90.8278C52.4532 90.8278 52.4218 90.8259 52.3902 90.8224L51.5531 90.7253C51.2796 90.6936 51.043 90.5334 50.9037 90.2858C50.7643 90.0384 50.7457 89.7447 50.8524 89.4802L55.2063 78.6975L55.3008 78.7391L55.2063 78.6975C55.3258 78.4015 55.5899 78.1929 55.8954 78.153C56.1927 78.1136 56.4826 78.2355 56.6718 78.4773C56.861 78.7188 56.9168 79.0395 56.8213 79.3351L53.3045 90.2148C53.186 90.5821 52.8503 90.8278 52.4845 90.8278Z" fill="#3F3D56"/>
<path d="M75.0903 15.5806C75.0903 15.5806 73.4974 12.2587 73.816 9.26891L68.5147 12.1343L68.7189 17.5738L75.0903 15.5806Z" fill="#A0616A"/>
<path d="M71.8004 13.6686C74.4415 13.6686 76.5826 11.4359 76.5826 8.68184C76.5826 5.92775 74.4415 3.69511 71.8004 3.69511C69.1593 3.69511 67.0182 5.92775 67.0182 8.68184C67.0182 11.4359 69.1593 13.6686 71.8004 13.6686Z" fill="#A0616A"/>
<path d="M76.6854 86.9924L73.7672 86.9922L72.379 75.2548L76.6859 75.2551L76.6854 86.9924Z" fill="#A0616A"/>
<path d="M66.6874 86.9234C66.5965 87.083 66.5486 87.598 66.5486 87.7836C66.5486 88.354 66.992 88.8164 67.539 88.8164H76.5762C76.9494 88.8164 77.2519 88.501 77.2519 88.1118V87.7195C77.2519 87.7195 77.699 86.5403 76.7785 85.0869C76.7785 85.0869 75.6346 86.2249 73.9252 84.4424L73.4211 83.4902L69.7723 86.2729L67.7498 86.5325C67.3073 86.5893 66.915 86.5237 66.6874 86.9234H66.6874Z" fill="#2F2E41"/>
<path d="M68.0818 15.5806L75.0903 14.584L80.506 17.2416L80.8245 37.8376C80.8245 37.8376 67.5023 39.4986 65.4028 37.3393C63.3032 35.1801 64.8961 17.906 64.8961 17.906L68.0818 15.5806Z" fill="#E6E6E6"/>
<path d="M70.6043 9.95221H69.3187C69.3187 9.95221 68.2032 8.52044 68.3533 9.39281C68.5034 10.2652 67.9031 11.2041 67.9031 11.2041L67.0027 10.8911C67.0027 10.8911 65.2019 2.99546 70.6043 2.56174C76.0066 2.12802 77.2072 6.50957 77.2072 6.50957C77.2072 6.50957 76.907 8.70034 76.3068 8.07441C75.7065 7.44847 72.4051 7.1355 72.4051 7.1355L70.6043 9.95221V9.95221Z" fill="#2F2E41"/>
<path d="M64.8371 63.7539L62.1683 64.9845L56.3456 54.8358L60.2846 53.0194L64.8371 63.7539Z" fill="#A0616A"/>
<path d="M55.6668 67.908C55.6456 68.0922 55.8016 68.5835 55.8735 68.7532C56.0948 69.2748 56.6797 69.5107 57.18 69.2799L65.4448 65.468C65.7861 65.3106 65.9404 64.8945 65.7895 64.5386L65.6373 64.1798C65.6373 64.1798 65.5887 62.9128 64.1831 61.9719C64.1831 61.9719 63.5784 63.4952 61.3237 62.5861L60.4933 61.9278L58.2357 66.0118L56.4868 67.1023C56.1042 67.3409 55.7199 67.4464 55.6669 67.908L55.6668 67.908H55.6668Z" fill="#2F2E41"/>
<path d="M79.8688 35.8445L80.8245 38.8578V49.216L77.7028 58.5998L77.9574 80.4789H72.3561L71.724 58.1617L72.2232 47.1391L68.4003 45.4781L58.3591 46.1243L63.0549 58.1617L57.8875 61.7556C57.8875 61.7556 50.1591 43.3895 51.3155 41.6101C52.4719 39.8308 66.011 36.692 66.011 36.692C66.011 36.692 79.8688 36.1767 79.8688 35.8445V35.8445Z" fill="#2F2E41"/>
<path d="M82.736 23.8855L84.2761 26.5159C84.2761 26.5159 86.4534 35.4397 84.2761 35.476C82.0988 35.5123 77.7028 30.9283 77.7028 30.9283L78.276 28.5362L79.8688 29.2006L79.5503 23.8855H82.736V23.8855Z" fill="#A0616A"/>
<path d="M77.9574 17.1997C77.9574 17.1997 83.0545 16.2633 83.5324 19.7422C84.0102 23.2211 84.2761 26.5159 84.2761 26.5159L78.7539 26.9929L77.9574 17.1997V17.1997Z" fill="#E6E6E6"/>
<path d="M79.0638 30.6357C79.5246 29.9611 78.8491 28.6351 77.5552 27.6741C76.2613 26.7131 74.8388 26.481 74.378 27.1557C73.9172 27.8303 74.5926 29.1562 75.8865 30.1172C77.1805 31.0782 78.603 31.3104 79.0638 30.6357Z" fill="#A0616A"/>
<path d="M106.301 87.4512L108.503 86.9547L107.715 77.8595L104.464 78.5921L106.301 87.4512Z" fill="#A0616A"/>
<path d="M113.836 85.6989C113.93 85.8039 114.046 86.1845 114.075 86.3245C114.165 86.7551 113.902 87.1795 113.489 87.2725L106.668 88.8093C106.386 88.8728 106.109 88.6861 106.048 88.3924L105.987 88.0963C105.987 88.0963 105.465 87.2823 105.932 86.0287C105.932 86.0287 106.974 86.6932 107.985 85.0571L108.217 84.2526L111.406 85.7325L112.973 85.5845C113.316 85.5521 113.602 85.4359 113.836 85.6989L113.836 85.6989V85.6989Z" fill="#2F2E41"/>
<path d="M110.24 86.7554L112.078 85.3952L107.921 77.3569L105.209 79.3643L110.24 86.7554Z" fill="#A0616A"/>
<path d="M116.507 82.0525C116.632 82.1107 116.883 82.4127 116.963 82.5295C117.207 82.8887 117.126 83.3866 116.782 83.6415L111.091 87.8531C110.856 88.027 110.53 87.9693 110.363 87.7243L110.195 87.4772C110.195 87.4772 109.408 86.943 109.365 85.5988C109.365 85.5988 110.573 85.7823 110.885 83.8632L110.795 83.0287L114.285 83.0806L115.67 82.3015C115.973 82.131 116.192 81.9069 116.507 82.0526L116.507 82.0525Z" fill="#2F2E41"/>
<path d="M83.7683 41.7881C83.7683 41.7881 80.3416 46.6461 87.1949 52.1079L101.187 47.4456L96.1898 36.5772L91.7638 34.0462L83.7683 41.7881L83.7683 41.7881Z" fill="#2F2E41"/>
<path d="M101.187 47.4456L106.613 58.463L110.039 81.3909L105.756 81.6887L101.473 59.9518L93.9054 48.19L99.1881 45.659" fill="#2F2E41"/>
<path d="M87.1949 48.6472V52.1079L96.9037 63.2272C96.9037 63.2272 96.9037 71.5647 100.616 75.4356L104.899 82.2842L108.611 80.1999L103.186 60.2496L93.4771 47.1479L87.1949 48.6472V48.6472Z" fill="#2F2E41"/>
<path d="M94.0941 14.3383L92.2652 21.6094L85.2923 20.179C85.2923 20.179 90.1577 14.948 89.4718 12.564L94.0941 14.3383Z" fill="#A0616A"/>
<path d="M88.7655 15.4358L93.0488 17.5201C93.0488 17.5201 95.2522 18.9246 95.2927 19.8601C95.3332 20.7956 95.0476 25.2621 95.0476 25.2621C95.0476 25.2621 96.761 27.0486 95.6187 30.6218L96.1898 36.5772L83.34 43.7235L84.4822 31.2174L83.9111 19.6045L88.7655 15.4358L88.7655 15.4358Z" fill="#3F3D56"/>
<path d="M84.9206 49.322C85.4221 50.5219 86.4224 51.2247 87.1546 50.8917C87.8868 50.5588 88.0737 49.3164 87.5719 48.1162C87.3777 47.6339 87.0756 47.207 86.6908 46.8714L84.5044 41.8155L82.2509 42.936L84.6457 47.8013C84.6195 48.3238 84.7138 48.8453 84.9206 49.322H84.9206Z" fill="#A0616A"/>
<path d="M87.1949 20.3489C87.1949 20.3489 84.0538 18.2646 82.9116 20.6467C81.7694 23.0288 79.1994 35.2372 79.1994 35.2372L82.9116 46.8501L86.3383 45.3613L83.34 32.8633L87.1949 20.3489V20.3489Z" fill="#3F3D56"/>
<path d="M103.294 47.4476C104.184 48.3704 105.362 48.6395 105.925 48.0487C106.488 47.4579 106.223 46.2311 105.332 45.308C104.981 44.9342 104.55 44.6535 104.074 44.4893L100.255 40.629L98.5556 42.5363L102.501 46.1395C102.661 46.6353 102.933 47.0838 103.294 47.4476Z" fill="#A0616A"/>
<path d="M95.1719 19.6386C95.1719 19.6386 89.6957 19.4051 89.4754 22.0584C89.2551 24.7118 92.9988 36.5513 92.9988 36.5513L100.553 45.9213L103.212 43.2208L96.0094 32.7537L95.1719 19.6386Z" fill="#3F3D56"/>
<path d="M89.7829 36.9022L85.2086 22.4233C81.5107 19.0253 77.499 27.2067 66.7297 22.569L70.117 38.9468C78.2593 34.357 85.2679 32.5593 89.7829 36.9022Z" fill="white"/>
<path d="M70.117 39.1607C70.0877 39.1607 70.0585 39.1542 70.0313 39.141C69.9726 39.113 69.9302 39.0577 69.9166 38.992L66.5293 22.6141C66.5133 22.5364 66.5397 22.4559 66.5984 22.4049C66.6568 22.354 66.7375 22.3411 66.808 22.3714C72.9259 25.0061 76.8747 23.4375 79.7575 22.2921C81.9493 21.4212 83.6801 20.734 85.3442 22.2629C85.3716 22.288 85.3921 22.3203 85.4035 22.3564L89.9778 36.8353C90.007 36.9278 89.9726 37.0292 89.8939 37.082C89.8154 37.1345 89.7123 37.1253 89.644 37.0593C85.6743 33.241 79.5004 33.9002 70.2145 39.135C70.184 39.1521 70.1506 39.1607 70.117 39.1607H70.117ZM67.0116 22.918L70.2599 38.6239C79.1699 33.6482 85.2723 32.8814 89.3591 36.2436L85.0317 22.546C83.5656 21.2369 82.0266 21.8483 79.9036 22.6917C77.0129 23.84 73.0752 25.4045 67.0116 22.918V22.918Z" fill="#3F3D56"/>
<path d="M61.2138 24.0992L59.6737 26.7297C59.6737 26.7297 57.4963 35.6535 59.6737 35.6898C61.851 35.7261 66.247 31.142 66.247 31.142L65.6738 28.75L64.0809 29.4144L64.3995 24.0992H61.2138V24.0992Z" fill="#A0616A"/>
<path d="M65.9924 17.4135C65.9924 17.4135 60.8953 16.4771 60.4174 19.956C59.9395 23.4349 59.6736 26.7297 59.6736 26.7297L65.1959 27.2067L65.9924 17.4135V17.4135Z" fill="#E6E6E6"/>
<path d="M68.0632 30.331C69.3572 29.37 70.0326 28.0441 69.5718 27.3694C69.111 26.6948 67.6885 26.9269 66.3946 27.8879C65.1006 28.8489 64.4252 30.1748 64.886 30.8495C65.3468 31.5241 66.7693 31.292 68.0632 30.331Z" fill="#A0616A"/>
<path d="M97.0705 10.4508C97.0705 13.1906 94.9405 15.4117 92.3131 15.4117C89.6857 15.4117 87.5558 13.1906 87.5558 10.4508C87.5558 7.71106 89.6857 5.49004 92.3131 5.49004C94.9405 5.49004 97.0705 7.71107 97.0705 10.4508Z" fill="#A0616A"/>
<path d="M91.9335 3.78139C92.0711 3.86518 92.2555 3.7384 92.2996 3.57869C92.3438 3.41898 92.2924 3.24941 92.2414 3.09193C92.1558 2.82767 92.0703 2.56341 91.9847 2.29915C91.8026 1.73689 91.6094 1.15499 91.2152 0.727044C90.6201 0.0811241 89.6744 -0.0831948 88.823 0.0358479C87.7297 0.188723 86.6511 0.806046 86.1427 1.82687C85.6344 2.84769 85.8508 4.27211 86.7693 4.909C85.4602 6.47366 85.0038 8.21742 85.0759 10.2925C85.148 12.3676 87.3166 14.2774 88.7308 15.7392C89.0466 15.5396 89.3337 14.604 89.1601 14.2642C88.9864 13.9243 89.2352 13.5305 89.0201 13.2175C88.805 12.9044 88.6251 13.4029 88.8425 13.0916C88.9798 12.8952 88.4442 12.4433 88.6482 12.3257C89.6347 11.7571 89.9628 10.4749 90.5824 9.49294C91.3297 8.30857 92.6088 7.5065 93.9625 7.37344C94.7081 7.30014 95.4957 7.4329 96.1069 7.88431C96.7181 8.33572 97.1138 9.14238 96.972 9.90927C97.3391 9.52063 97.5218 8.95109 97.4529 8.41038C97.384 7.86966 97.0649 7.36965 96.6133 7.09448C96.8879 6.14747 96.6526 5.05812 96.0152 4.32528C95.3778 3.59245 92.7921 3.71726 91.8615 3.91013L91.9335 3.78139Z" fill="#2F2E41"/>
<path d="M91.7889 7.40219C90.5564 7.54093 89.6665 8.65425 88.915 9.68239C88.4819 10.275 88.0282 10.9294 88.0391 11.6744C88.0501 12.4276 88.533 13.0737 88.7638 13.7875C89.1411 14.9543 88.7734 16.3425 87.8753 17.1419C88.7627 17.3175 89.722 16.6237 89.8752 15.6955C90.0535 14.615 89.268 13.5721 89.361 12.4799C89.443 11.5178 90.1701 10.7773 90.7883 10.0578C91.4065 9.33842 91.9871 8.38377 91.7027 7.46445L91.7889 7.40219Z" fill="#2F2E41"/>
</svg>
